PathFileType	4	(X/Y/Z)	c:/Users/goper/Files/vsCode/490R/osim_files/C11/C11_Slow_04.trc
DataRate	CameraRate	NumFrames	NumMarkers	Units                	OrigDataRate	OrigDataStartFrame	OrigNumFrames
120.00	120.00	4	36	mm	120.0	1026	1367
                Frame#	Time	LPSIS			LASIS			LTH1			LTH2			LTH3			LTH4			LLFE			LMFE			LSH1			LSH2			LSH3			LSH4			LLMAL			LMMAL			LCAL			LMTP5			LTOE			LMTP1			RPSIS			RASIS			RTH1			RTH2			RTH3			RTH4			RLFE			RMFE			RSH1			RSH2			RSH3			RSH4			RLMAL			RMMAL			RCAL			RMTP1			RTOE			RMTP5		
		X1	Y1	Z1	X2	Y2	Z2	X3	Y3	Z3	X4	Y4	Z4	X5	Y5	Z5	X6	Y6	Z6	X7	Y7	Z7	X8	Y8	Z8	X9	Y9	Z9	X10	Y10	Z10	X11	Y11	Z11	X12	Y12	Z12	X13	Y13	Z13	X14	Y14	Z14	X15	Y15	Z15	X16	Y16	Z16	X17	Y17	Z17	X18	Y18	Z18	X19	Y19	Z19	X20	Y20	Z20	X21	Y21	Z21	X22	Y22	Z22	X23	Y23	Z23	X24	Y24	Z24	X25	Y25	Z25	X26	Y26	Z26	X27	Y27	Z27	X28	Y28	Z28	X29	Y29	Z29	X30	Y30	Z30	X31	Y31	Z31	X32	Y32	Z32	X33	Y33	Z33	X34	Y34	Z34	X35	Y35	Z35	X36	Y36	Z36

1026	8.54167	-2214.26709	984.30316	303.63043	-2398.51294	998.92358	353.51929	-2392.74048	609.45428	399.05164	-2409.77588	564.82043	391.08560	-2451.41797	623.86432	402.88214	-2459.86084	581.09424	393.82410	0.00000	0.00000	0.00000	-2448.23828	503.79391	383.82645	-2397.97900	401.28696	396.32590	-2396.09619	357.31085	394.05075	-2460.98340	395.80579	396.24313	-2451.16675	351.26883	392.39664	-2391.48071	97.02917	326.27115	-2421.65259	115.84330	236.17989	-2333.19189	64.27764	270.42459	-2503.27173	45.62732	358.31110	-2577.10718	63.37839	291.68118	-2537.49536	49.71577	245.20602	-2209.55103	990.20361	218.42549	-2366.77100	971.21979	124.23122	-2405.64453	612.49664	87.48042	-2407.47388	569.29272	90.13681	-2341.79053	601.83582	95.06543	-2355.17261	559.53125	97.00385	-2389.16479	484.70676	103.70573	-2387.78711	469.61087	219.67558	-2281.61182	462.51242	99.09133	-2248.10571	432.05426	101.83205	-2316.42310	408.69931	98.74078	-2276.80957	388.70810	96.58486	-2037.37341	269.73373	152.56955	-2073.12476	250.25069	242.47499	-1986.30212	308.21466	215.83704	-2074.05811	111.98340	223.36200	-2078.31763	112.74759	172.22816	-2027.65674	138.47824	120.94387
1027	8.55000	-2222.56201	984.85645	304.22842	-2405.50757	1000.14758	353.98404	-2396.25146	609.99518	399.13681	-2412.70410	565.21912	391.32593	-2454.96729	623.81415	403.31647	-2461.54395	579.01227	394.04990	0.00000	0.00000	0.00000	-2450.61743	503.72153	384.10016	-2399.66406	401.39670	396.61758	-2397.54248	357.35980	394.35159	-2462.67822	395.50922	396.44977	-2452.71631	351.02991	392.66165	-2391.50684	97.04389	326.29230	-2421.68555	115.88833	236.17332	-2333.35254	63.91103	270.19434	-2503.26953	45.61959	358.34097	-2577.06226	63.36969	291.71591	-2537.51636	49.76659	245.24236	-2216.39062	991.38733	219.13486	-2373.46704	972.92419	124.67884	-2418.87183	615.99872	86.43694	-2421.63354	572.86829	89.07088	-2356.38965	603.62030	94.66139	-2369.24243	562.30145	96.41493	-2405.28809	488.51553	102.55216	-2404.31592	472.96487	218.54480	-2297.26465	466.70609	98.56100	-2264.81592	435.68536	101.45638	-2332.29419	412.40170	98.26045	-2293.23315	392.60614	95.85175	-2054.55444	272.40927	152.33730	-2090.78345	251.47659	241.94473	-2003.07605	308.72748	216.48389	-2094.43652	113.91371	220.21313	0.00000	0.00000	0.00000	-2047.29810	141.59731	118.33977
1028	8.55833	-2227.81738	986.50470	304.67294	-2412.31689	1001.37964	354.45111	-2399.50171	610.55255	399.26480	-2415.53687	565.53119	391.55112	-2458.67554	623.80042	403.88080	-2464.50220	578.87305	394.48196	0.00000	0.00000	0.00000	-2452.80200	503.68747	384.47940	-2400.98242	401.40158	396.77026	-2398.94727	357.37878	394.70016	-2463.99292	395.15927	396.76569	-2453.79224	350.88354	392.90936	-2391.42383	97.10438	326.26727	-2421.71240	115.89333	236.11740	-2333.42798	63.90371	270.26535	-2503.32275	45.59223	358.40253	-2576.85474	63.34013	291.63919	-2537.51636	49.74236	245.24960	-2223.23364	992.62958	219.86992	-2380.11060	974.72668	125.14461	-2432.10254	619.80377	85.52023	-2435.38989	576.71576	87.90549	-2369.56152	606.34943	93.97269	-2383.14087	565.26550	95.33762	-2421.07886	492.42065	101.51405	-2420.69312	476.81265	217.48656	-2313.45166	470.31421	98.40189	-2281.06836	439.16815	101.29725	-2348.37866	416.31485	97.72810	-2309.54443	396.29108	95.19588	-2072.43701	273.98312	152.07458	-2109.38208	252.80984	241.81442	-2020.44604	308.16849	216.80760	-2115.38379	115.17036	217.13313	-2119.90063	119.50087	166.35999	-2067.68481	143.79037	115.81602
1029	8.56667	-2236.39917	986.91742	305.38129	-2419.23682	1002.72272	354.99155	-2402.57227	611.15363	399.24292	-2418.14697	565.95111	391.68961	-2461.52734	623.73590	404.16077	-2467.11768	578.78900	394.98181	0.00000	0.00000	0.00000	-2452.92212	504.34808	386.58618	-2400.04492	402.62689	396.78079	-2399.96021	357.44937	394.85706	-2464.14355	394.59366	396.19592	-2454.86816	350.73892	393.16357	-2391.47705	97.22323	326.24310	-2421.71851	115.86510	236.07159	-2333.46899	63.93289	270.26172	-2503.34375	45.60383	358.43137	-2576.85034	63.30619	291.64655	-2537.51929	49.72186	245.21091	-2230.02783	993.88654	220.52647	-2386.41211	976.53473	125.61532	-2444.26904	623.66730	84.39494	-2450.54565	580.81927	87.43056	-2383.24878	609.21515	92.90723	-2397.68433	568.07465	94.58410	-2436.55542	496.50912	100.39513	-2436.48877	480.74704	216.35535	-2328.96753	473.94586	98.15813	-2297.15527	441.96152	101.29745	-2364.45361	419.97198	96.97907	-2325.37598	399.75934	94.37483	-2090.66235	274.57645	151.61845	-2128.52710	252.74319	240.72710	-2037.96179	306.67218	216.97153	-2136.93652	115.64143	214.31448	-2141.18213	120.86204	163.69473	-2088.99609	144.72198	113.33958
